<mxfile host="app.diagrams.net" agent="Mozilla/5.0 (Windows NT 10.0; Win64; x64) AppleWebKit/537.36 (KHTML, like Gecko) Chrome/136.0.0.0 Safari/537.36" version="27.0.9">
  <diagram name="Página-1" id="NnraW3zmu58qPAHS5P02">
    <mxGraphModel grid="1" page="1" gridSize="10" guides="1" tooltips="1" connect="1" arrows="1" fold="1" pageScale="1" pageWidth="827" pageHeight="1169" background="#FFFFFF" math="0" shadow="0">
      <root>
        <mxCell id="0" />
        <mxCell id="1" parent="0" />
        <mxCell id="hQXbaFb16yx9TMFYbETZ-2" style="edgeStyle=orthogonalEdgeStyle;rounded=0;orthogonalLoop=1;jettySize=auto;html=1;exitX=0.5;exitY=0;exitDx=0;exitDy=0;" edge="1" parent="1">
          <mxGeometry relative="1" as="geometry">
            <mxPoint x="-1120" y="1160" as="targetPoint" />
          </mxGeometry>
        </mxCell>
        <mxCell id="R9z8_o789K9LiWmNqdRv-84" value="Aeroporto international" style="whiteSpace=wrap;html=1;align=center;" vertex="1" parent="1">
          <mxGeometry x="588" y="497" width="100" height="40" as="geometry" />
        </mxCell>
        <mxCell id="R9z8_o789K9LiWmNqdRv-85" value="código aeroporto" style="ellipse;whiteSpace=wrap;html=1;align=center;fontStyle=4;" vertex="1" parent="1">
          <mxGeometry x="510" y="417" width="78" height="40" as="geometry" />
        </mxCell>
        <mxCell id="R9z8_o789K9LiWmNqdRv-86" value="" style="endArrow=none;html=1;rounded=0;entryX=0.702;entryY=0.975;entryDx=0;entryDy=0;entryPerimeter=0;" edge="1" parent="1" target="R9z8_o789K9LiWmNqdRv-85">
          <mxGeometry width="50" height="50" relative="1" as="geometry">
            <mxPoint x="598" y="497" as="sourcePoint" />
            <mxPoint x="648" y="447" as="targetPoint" />
          </mxGeometry>
        </mxCell>
        <mxCell id="R9z8_o789K9LiWmNqdRv-87" value="cidade principal" style="ellipse;whiteSpace=wrap;html=1;align=center;" vertex="1" parent="1">
          <mxGeometry x="588" y="377" width="80" height="40" as="geometry" />
        </mxCell>
        <mxCell id="R9z8_o789K9LiWmNqdRv-88" value="" style="endArrow=none;html=1;rounded=0;exitX=0.364;exitY=0.015;exitDx=0;exitDy=0;exitPerimeter=0;entryX=0.325;entryY=0.995;entryDx=0;entryDy=0;entryPerimeter=0;" edge="1" parent="1" source="R9z8_o789K9LiWmNqdRv-84" target="R9z8_o789K9LiWmNqdRv-87">
          <mxGeometry width="50" height="50" relative="1" as="geometry">
            <mxPoint x="688" y="467" as="sourcePoint" />
            <mxPoint x="618" y="437" as="targetPoint" />
          </mxGeometry>
        </mxCell>
        <mxCell id="R9z8_o789K9LiWmNqdRv-89" value="nome" style="ellipse;whiteSpace=wrap;html=1;align=center;" vertex="1" parent="1">
          <mxGeometry x="648" y="427" width="40" height="30" as="geometry" />
        </mxCell>
        <mxCell id="R9z8_o789K9LiWmNqdRv-90" value="" style="endArrow=none;html=1;rounded=0;entryX=0.5;entryY=1;entryDx=0;entryDy=0;exitX=0.628;exitY=-0.025;exitDx=0;exitDy=0;exitPerimeter=0;" edge="1" parent="1" source="R9z8_o789K9LiWmNqdRv-84" target="R9z8_o789K9LiWmNqdRv-89">
          <mxGeometry relative="1" as="geometry">
            <mxPoint x="638" y="487" as="sourcePoint" />
            <mxPoint x="888" y="397" as="targetPoint" />
          </mxGeometry>
        </mxCell>
        <mxCell id="R9z8_o789K9LiWmNqdRv-93" value="&lt;span style=&quot;border-bottom: 1px dotted&quot;&gt;&lt;font style=&quot;font-size: 10px;&quot;&gt;código terminal&lt;/font&gt;&lt;/span&gt;" style="ellipse;whiteSpace=wrap;html=1;align=center;strokeColor=light-dark(#242424,#EDEDED);" vertex="1" parent="1">
          <mxGeometry x="945" y="498.81" width="80" height="36.38" as="geometry" />
        </mxCell>
        <mxCell id="R9z8_o789K9LiWmNqdRv-94" value="" style="endArrow=none;html=1;rounded=0;exitX=1;exitY=0.5;exitDx=0;exitDy=0;entryX=0;entryY=0.5;entryDx=0;entryDy=0;" edge="1" parent="1" source="R9z8_o789K9LiWmNqdRv-103" target="R9z8_o789K9LiWmNqdRv-93">
          <mxGeometry relative="1" as="geometry">
            <mxPoint x="763.0000000000001" y="694.5" as="sourcePoint" />
            <mxPoint x="1083" y="547" as="targetPoint" />
          </mxGeometry>
        </mxCell>
        <mxCell id="R9z8_o789K9LiWmNqdRv-95" value="Avião" style="whiteSpace=wrap;html=1;align=center;" vertex="1" parent="1">
          <mxGeometry x="1072" y="850" width="60" height="30" as="geometry" />
        </mxCell>
        <mxCell id="R9z8_o789K9LiWmNqdRv-96" style="edgeStyle=orthogonalEdgeStyle;rounded=0;orthogonalLoop=1;jettySize=auto;html=1;exitX=0.5;exitY=0;exitDx=0;exitDy=0;shape=link;" edge="1" parent="1">
          <mxGeometry relative="1" as="geometry">
            <mxPoint x="1102" y="960" as="sourcePoint" />
            <mxPoint x="1102" y="940" as="targetPoint" />
            <Array as="points">
              <mxPoint x="1102" y="950" />
              <mxPoint x="1102" y="950" />
            </Array>
          </mxGeometry>
        </mxCell>
        <mxCell id="R9z8_o789K9LiWmNqdRv-97" value="" style="shape=rhombus;double=1;perimeter=rhombusPerimeter;whiteSpace=wrap;html=1;align=center;" vertex="1" parent="1">
          <mxGeometry x="738" y="502" width="30" height="30" as="geometry" />
        </mxCell>
        <mxCell id="R9z8_o789K9LiWmNqdRv-99" value="" style="shape=rhombus;double=1;perimeter=rhombusPerimeter;whiteSpace=wrap;html=1;align=center;" vertex="1" parent="1">
          <mxGeometry x="1092" y="910" width="20" height="20" as="geometry" />
        </mxCell>
        <mxCell id="R9z8_o789K9LiWmNqdRv-100" value="" style="triangle;whiteSpace=wrap;html=1;rotation=-90;fillColor=#000000;" vertex="1" parent="1">
          <mxGeometry x="1097" y="931" width="10" height="10" as="geometry" />
        </mxCell>
        <mxCell id="R9z8_o789K9LiWmNqdRv-101" style="edgeStyle=orthogonalEdgeStyle;rounded=0;orthogonalLoop=1;jettySize=auto;html=1;exitX=0.5;exitY=0;exitDx=0;exitDy=0;endArrow=none;startFill=0;" edge="1" parent="1" source="R9z8_o789K9LiWmNqdRv-99">
          <mxGeometry relative="1" as="geometry">
            <mxPoint x="1102" y="880" as="targetPoint" />
          </mxGeometry>
        </mxCell>
        <mxCell id="R9z8_o789K9LiWmNqdRv-102" value="Fila" style="shape=ext;margin=3;double=1;whiteSpace=wrap;html=1;align=center;" vertex="1" parent="1">
          <mxGeometry x="1074" y="960" width="56" height="30" as="geometry" />
        </mxCell>
        <mxCell id="R9z8_o789K9LiWmNqdRv-103" value="Terminal" style="shape=ext;margin=3;double=1;whiteSpace=wrap;html=1;align=center;" vertex="1" parent="1">
          <mxGeometry x="837" y="502.29999999999995" width="60" height="30" as="geometry" />
        </mxCell>
        <mxCell id="R9z8_o789K9LiWmNqdRv-104" value="código voo" style="ellipse;whiteSpace=wrap;html=1;align=center;fontStyle=4;" vertex="1" parent="1">
          <mxGeometry x="1020" y="793" width="70" height="40" as="geometry" />
        </mxCell>
        <mxCell id="R9z8_o789K9LiWmNqdRv-105" value="" style="endArrow=none;html=1;rounded=0;exitX=0.25;exitY=0;exitDx=0;exitDy=0;entryX=1;entryY=1;entryDx=0;entryDy=0;" edge="1" parent="1" source="R9z8_o789K9LiWmNqdRv-95" target="R9z8_o789K9LiWmNqdRv-104">
          <mxGeometry relative="1" as="geometry">
            <mxPoint x="1097" y="829.5" as="sourcePoint" />
            <mxPoint x="1257" y="829.5" as="targetPoint" />
          </mxGeometry>
        </mxCell>
        <mxCell id="R9z8_o789K9LiWmNqdRv-106" value="&lt;span style=&quot;border-bottom: 1px dotted&quot;&gt;número&lt;/span&gt;" style="ellipse;whiteSpace=wrap;html=1;align=center;" vertex="1" parent="1">
          <mxGeometry x="1158" y="941" width="50" height="32" as="geometry" />
        </mxCell>
        <mxCell id="R9z8_o789K9LiWmNqdRv-107" value="" style="endArrow=none;html=1;rounded=0;exitX=1;exitY=0.25;exitDx=0;exitDy=0;entryX=0;entryY=0.5;entryDx=0;entryDy=0;" edge="1" parent="1" source="R9z8_o789K9LiWmNqdRv-102">
          <mxGeometry relative="1" as="geometry">
            <mxPoint x="1078" y="930" as="sourcePoint" />
            <mxPoint x="1158.0000000000177" y="956" as="targetPoint" />
          </mxGeometry>
        </mxCell>
        <mxCell id="R9z8_o789K9LiWmNqdRv-108" style="edgeStyle=orthogonalEdgeStyle;rounded=0;orthogonalLoop=1;jettySize=auto;html=1;exitX=0.5;exitY=0;exitDx=0;exitDy=0;shape=link;" edge="1" parent="1" source="R9z8_o789K9LiWmNqdRv-109">
          <mxGeometry relative="1" as="geometry">
            <mxPoint x="1102" y="1040" as="targetPoint" />
          </mxGeometry>
        </mxCell>
        <mxCell id="_K1BbyRudqznMXT3kikE-1" style="edgeStyle=orthogonalEdgeStyle;rounded=0;orthogonalLoop=1;jettySize=auto;html=1;exitX=0;exitY=0;exitDx=0;exitDy=0;entryX=0.5;entryY=1;entryDx=0;entryDy=0;endArrow=none;startFill=0;" edge="1" parent="1" source="HjxeXZ4SLtCs4D9HzXID-13">
          <mxGeometry relative="1" as="geometry">
            <Array as="points">
              <mxPoint x="1266" y="1064" />
            </Array>
            <mxPoint x="1266" y="790" as="targetPoint" />
          </mxGeometry>
        </mxCell>
        <mxCell id="R9z8_o789K9LiWmNqdRv-109" value="Assento" style="shape=ext;margin=3;double=1;whiteSpace=wrap;html=1;align=center;" vertex="1" parent="1">
          <mxGeometry x="1071.5" y="1050" width="61" height="30" as="geometry" />
        </mxCell>
        <mxCell id="R9z8_o789K9LiWmNqdRv-110" style="edgeStyle=orthogonalEdgeStyle;rounded=0;orthogonalLoop=1;jettySize=auto;html=1;exitX=0.5;exitY=0;exitDx=0;exitDy=0;entryX=0.5;entryY=1;entryDx=0;entryDy=0;endArrow=none;startFill=0;" edge="1" parent="1" source="R9z8_o789K9LiWmNqdRv-111" target="R9z8_o789K9LiWmNqdRv-102">
          <mxGeometry relative="1" as="geometry" />
        </mxCell>
        <mxCell id="R9z8_o789K9LiWmNqdRv-111" value="" style="shape=rhombus;double=1;perimeter=rhombusPerimeter;whiteSpace=wrap;html=1;align=center;" vertex="1" parent="1">
          <mxGeometry x="1092" y="1010" width="20" height="20" as="geometry" />
        </mxCell>
        <mxCell id="R9z8_o789K9LiWmNqdRv-112" value="" style="triangle;whiteSpace=wrap;html=1;fillColor=#000000;rotation=-90;" vertex="1" parent="1">
          <mxGeometry x="1097.56" y="1032" width="8.88" height="8" as="geometry" />
        </mxCell>
        <mxCell id="R9z8_o789K9LiWmNqdRv-113" value="&lt;span style=&quot;border-bottom: 1px dotted&quot;&gt;letra&lt;/span&gt;" style="ellipse;whiteSpace=wrap;html=1;align=center;" vertex="1" parent="1">
          <mxGeometry x="1139" y="1020" width="52" height="27" as="geometry" />
        </mxCell>
        <mxCell id="R9z8_o789K9LiWmNqdRv-114" value="" style="endArrow=none;html=1;rounded=0;entryX=1;entryY=0;entryDx=0;entryDy=0;exitX=0;exitY=1;exitDx=0;exitDy=0;" edge="1" parent="1" source="R9z8_o789K9LiWmNqdRv-113" target="R9z8_o789K9LiWmNqdRv-109">
          <mxGeometry relative="1" as="geometry">
            <mxPoint x="1068" y="980" as="sourcePoint" />
            <mxPoint x="1228" y="980" as="targetPoint" />
          </mxGeometry>
        </mxCell>
        <mxCell id="R9z8_o789K9LiWmNqdRv-115" value="Comprador" style="rounded=0;whiteSpace=wrap;html=1;" vertex="1" parent="1">
          <mxGeometry x="1550" y="476.65" width="100" height="40" as="geometry" />
        </mxCell>
        <mxCell id="R9z8_o789K9LiWmNqdRv-119" style="edgeStyle=orthogonalEdgeStyle;shape=link;rounded=0;orthogonalLoop=1;jettySize=auto;html=1;exitX=0.942;exitY=0.5;exitDx=0;exitDy=0;entryX=0;entryY=0.5;entryDx=0;entryDy=0;exitPerimeter=0;" edge="1" parent="1" source="R9z8_o789K9LiWmNqdRv-120" target="R9z8_o789K9LiWmNqdRv-115">
          <mxGeometry relative="1" as="geometry" />
        </mxCell>
        <mxCell id="R9z8_o789K9LiWmNqdRv-120" value="" style="rhombus;whiteSpace=wrap;html=1;" vertex="1" parent="1">
          <mxGeometry x="1430" y="476.65" width="38" height="40" as="geometry" />
        </mxCell>
        <mxCell id="R9z8_o789K9LiWmNqdRv-121" value="" style="triangle;whiteSpace=wrap;html=1;rotation=0;fillColor=#000000;" vertex="1" parent="1">
          <mxGeometry x="1420" y="492" width="10" height="10" as="geometry" />
        </mxCell>
        <mxCell id="R9z8_o789K9LiWmNqdRv-123" value="preço" style="ellipse;whiteSpace=wrap;html=1;align=center;" vertex="1" parent="1">
          <mxGeometry x="1147.56" y="575" width="40" height="40" as="geometry" />
        </mxCell>
        <mxCell id="R9z8_o789K9LiWmNqdRv-125" value="data" style="ellipse;whiteSpace=wrap;html=1;align=center;" vertex="1" parent="1">
          <mxGeometry x="1128" y="427" width="40" height="40" as="geometry" />
        </mxCell>
        <mxCell id="R9z8_o789K9LiWmNqdRv-126" value="hora" style="ellipse;whiteSpace=wrap;html=1;align=center;" vertex="1" parent="1">
          <mxGeometry x="1181" y="421.99999999999994" width="40" height="40" as="geometry" />
        </mxCell>
        <mxCell id="R9z8_o789K9LiWmNqdRv-128" value="" style="endArrow=none;html=1;rounded=0;entryX=1;entryY=0.5;entryDx=0;entryDy=0;exitX=0;exitY=0.5;exitDx=0;exitDy=0;" edge="1" parent="1" source="M8U1GDQXhDvbst_Kynyv-7" target="R9z8_o789K9LiWmNqdRv-123">
          <mxGeometry width="50" height="50" relative="1" as="geometry">
            <mxPoint x="1463" y="614.8" as="sourcePoint" />
            <mxPoint x="1513" y="564.8" as="targetPoint" />
          </mxGeometry>
        </mxCell>
        <mxCell id="R9z8_o789K9LiWmNqdRv-130" value="nome&amp;nbsp;&lt;div&gt;completo&lt;/div&gt;" style="ellipse;whiteSpace=wrap;html=1;align=center;" vertex="1" parent="1">
          <mxGeometry x="1610" y="406.65000000000003" width="70" height="40" as="geometry" />
        </mxCell>
        <mxCell id="R9z8_o789K9LiWmNqdRv-131" value="" style="endArrow=none;html=1;rounded=0;entryX=0.5;entryY=1;entryDx=0;entryDy=0;exitX=0.25;exitY=0;exitDx=0;exitDy=0;" edge="1" parent="1" source="R9z8_o789K9LiWmNqdRv-115" target="R9z8_o789K9LiWmNqdRv-157">
          <mxGeometry width="50" height="50" relative="1" as="geometry">
            <mxPoint x="1350" y="576.6499999999999" as="sourcePoint" />
            <mxPoint x="1555" y="446.65" as="targetPoint" />
          </mxGeometry>
        </mxCell>
        <mxCell id="R9z8_o789K9LiWmNqdRv-132" value="" style="endArrow=none;html=1;rounded=0;entryX=0.5;entryY=1;entryDx=0;entryDy=0;exitX=0.75;exitY=0;exitDx=0;exitDy=0;" edge="1" parent="1" source="R9z8_o789K9LiWmNqdRv-115" target="R9z8_o789K9LiWmNqdRv-130">
          <mxGeometry width="50" height="50" relative="1" as="geometry">
            <mxPoint x="1430" y="546.6499999999999" as="sourcePoint" />
            <mxPoint x="1480" y="496.65" as="targetPoint" />
          </mxGeometry>
        </mxCell>
        <mxCell id="R9z8_o789K9LiWmNqdRv-143" value="" style="endArrow=none;html=1;rounded=0;entryX=1;entryY=0.5;entryDx=0;entryDy=0;exitX=0;exitY=0.5;exitDx=0;exitDy=0;" edge="1" parent="1" source="M8U1GDQXhDvbst_Kynyv-4" target="R9z8_o789K9LiWmNqdRv-180">
          <mxGeometry width="50" height="50" relative="1" as="geometry">
            <mxPoint x="1359" y="889.3" as="sourcePoint" />
            <mxPoint x="1288" y="739.3" as="targetPoint" />
          </mxGeometry>
        </mxCell>
        <mxCell id="R9z8_o789K9LiWmNqdRv-144" style="edgeStyle=orthogonalEdgeStyle;shape=link;rounded=0;orthogonalLoop=1;jettySize=auto;html=1;exitX=0.5;exitY=0;exitDx=0;exitDy=0;entryX=0;entryY=0.5;entryDx=0;entryDy=0;" edge="1" parent="1" source="R9z8_o789K9LiWmNqdRv-145" target="R9z8_o789K9LiWmNqdRv-159">
          <mxGeometry relative="1" as="geometry" />
        </mxCell>
        <mxCell id="R9z8_o789K9LiWmNqdRv-145" value="Fatura" style="rounded=0;whiteSpace=wrap;html=1;" vertex="1" parent="1">
          <mxGeometry x="1341" y="710" width="100" height="40" as="geometry" />
        </mxCell>
        <mxCell id="R9z8_o789K9LiWmNqdRv-147" style="edgeStyle=orthogonalEdgeStyle;shape=link;rounded=0;orthogonalLoop=1;jettySize=auto;html=1;exitX=0.501;exitY=0.02;exitDx=0;exitDy=0;entryX=0;entryY=0.5;entryDx=0;entryDy=0;exitPerimeter=0;" edge="1" parent="1" source="R9z8_o789K9LiWmNqdRv-148" target="R9z8_o789K9LiWmNqdRv-95">
          <mxGeometry relative="1" as="geometry" />
        </mxCell>
        <mxCell id="9N2XybsgDgmymU0dZ7xB-6" style="edgeStyle=orthogonalEdgeStyle;rounded=0;orthogonalLoop=1;jettySize=auto;html=1;exitX=0;exitY=0.5;exitDx=0;exitDy=0;entryX=0.75;entryY=1;entryDx=0;entryDy=0;endArrow=none;startFill=0;" edge="1" parent="1" source="R9z8_o789K9LiWmNqdRv-148" target="R9z8_o789K9LiWmNqdRv-84">
          <mxGeometry relative="1" as="geometry" />
        </mxCell>
        <mxCell id="9N2XybsgDgmymU0dZ7xB-8" style="edgeStyle=orthogonalEdgeStyle;rounded=0;orthogonalLoop=1;jettySize=auto;html=1;exitX=0.5;exitY=1;exitDx=0;exitDy=0;entryX=0.25;entryY=1;entryDx=0;entryDy=0;endArrow=none;startFill=0;" edge="1" parent="1" source="R9z8_o789K9LiWmNqdRv-148" target="R9z8_o789K9LiWmNqdRv-84">
          <mxGeometry relative="1" as="geometry" />
        </mxCell>
        <mxCell id="R9z8_o789K9LiWmNqdRv-148" value="" style="rhombus;whiteSpace=wrap;html=1;" vertex="1" parent="1">
          <mxGeometry x="748" y="973" width="48" height="50" as="geometry" />
        </mxCell>
        <mxCell id="R9z8_o789K9LiWmNqdRv-150" value="" style="rhombus;whiteSpace=wrap;html=1;" vertex="1" parent="1">
          <mxGeometry x="1370.5" y="620" width="41" height="40" as="geometry" />
        </mxCell>
        <mxCell id="R9z8_o789K9LiWmNqdRv-152" value="código fatura" style="ellipse;whiteSpace=wrap;html=1;align=center;fontStyle=4;" vertex="1" parent="1">
          <mxGeometry x="1476.5" y="700" width="89" height="60" as="geometry" />
        </mxCell>
        <mxCell id="R9z8_o789K9LiWmNqdRv-153" value="" style="endArrow=none;html=1;rounded=0;entryX=0;entryY=0.5;entryDx=0;entryDy=0;exitX=1;exitY=0.5;exitDx=0;exitDy=0;" edge="1" parent="1" source="R9z8_o789K9LiWmNqdRv-145" target="R9z8_o789K9LiWmNqdRv-152">
          <mxGeometry width="50" height="50" relative="1" as="geometry">
            <mxPoint x="1341" y="790" as="sourcePoint" />
            <mxPoint x="1391" y="740" as="targetPoint" />
          </mxGeometry>
        </mxCell>
        <mxCell id="R9z8_o789K9LiWmNqdRv-156" value="v&amp;nbsp; emite" style="text;html=1;align=center;verticalAlign=middle;resizable=0;points=[];autosize=1;strokeColor=none;fillColor=none;" vertex="1" parent="1">
          <mxGeometry x="1406.5" y="625" width="70" height="30" as="geometry" />
        </mxCell>
        <mxCell id="R9z8_o789K9LiWmNqdRv-157" value="NIF" style="ellipse;whiteSpace=wrap;html=1;align=center;fontStyle=4;" vertex="1" parent="1">
          <mxGeometry x="1540" y="411.65000000000003" width="39.5" height="35" as="geometry" />
        </mxCell>
        <mxCell id="R9z8_o789K9LiWmNqdRv-159" value="" style="triangle;whiteSpace=wrap;html=1;rotation=-90;fillColor=#000000;" vertex="1" parent="1">
          <mxGeometry x="1384.75" y="660" width="12.5" height="12.5" as="geometry" />
        </mxCell>
        <mxCell id="R9z8_o789K9LiWmNqdRv-169" value="Loja Online" style="rounded=0;whiteSpace=wrap;html=1;" vertex="1" parent="1">
          <mxGeometry x="1299.5" y="300" width="100" height="40" as="geometry" />
        </mxCell>
        <mxCell id="R9z8_o789K9LiWmNqdRv-171" value="Balcão de atendimento" style="rounded=0;whiteSpace=wrap;html=1;" vertex="1" parent="1">
          <mxGeometry x="1132.5" y="300" width="100" height="40" as="geometry" />
        </mxCell>
        <mxCell id="R9z8_o789K9LiWmNqdRv-178" value="" style="rhombus;whiteSpace=wrap;html=1;" vertex="1" parent="1">
          <mxGeometry x="837" y="330" width="48" height="50" as="geometry" />
        </mxCell>
        <mxCell id="R9z8_o789K9LiWmNqdRv-180" value="código venda" style="ellipse;whiteSpace=wrap;html=1;align=center;fontStyle=4;" vertex="1" parent="1">
          <mxGeometry x="1102" y="485.49999999999994" width="60" height="40" as="geometry" />
        </mxCell>
        <mxCell id="R9z8_o789K9LiWmNqdRv-183" value="participa &amp;lt;" style="text;html=1;align=center;verticalAlign=middle;whiteSpace=wrap;rounded=0;" vertex="1" parent="1">
          <mxGeometry x="1414.75" y="512.3" width="68.5" height="20" as="geometry" />
        </mxCell>
        <mxCell id="R9z8_o789K9LiWmNqdRv-185" value="marca" style="ellipse;whiteSpace=wrap;html=1;align=center;" vertex="1" parent="1">
          <mxGeometry x="1097.56" y="780" width="50" height="30" as="geometry" />
        </mxCell>
        <mxCell id="R9z8_o789K9LiWmNqdRv-186" value="" style="endArrow=none;html=1;rounded=0;exitX=0.693;exitY=0.014;exitDx=0;exitDy=0;entryX=0.5;entryY=1;entryDx=0;entryDy=0;exitPerimeter=0;" edge="1" parent="1" source="R9z8_o789K9LiWmNqdRv-95" target="R9z8_o789K9LiWmNqdRv-185">
          <mxGeometry relative="1" as="geometry">
            <mxPoint x="1113" y="823" as="sourcePoint" />
            <mxPoint x="1170" y="879" as="targetPoint" />
          </mxGeometry>
        </mxCell>
        <mxCell id="R9z8_o789K9LiWmNqdRv-187" value="modelo" style="ellipse;whiteSpace=wrap;html=1;align=center;" vertex="1" parent="1">
          <mxGeometry x="1163" y="793" width="50" height="30" as="geometry" />
        </mxCell>
        <mxCell id="R9z8_o789K9LiWmNqdRv-188" value="" style="endArrow=none;html=1;rounded=0;entryX=0;entryY=1;entryDx=0;entryDy=0;exitX=1;exitY=0;exitDx=0;exitDy=0;" edge="1" parent="1" source="R9z8_o789K9LiWmNqdRv-95" target="R9z8_o789K9LiWmNqdRv-187">
          <mxGeometry relative="1" as="geometry">
            <mxPoint x="1113" y="843" as="sourcePoint" />
            <mxPoint x="1318" y="843" as="targetPoint" />
          </mxGeometry>
        </mxCell>
        <mxCell id="R9z8_o789K9LiWmNqdRv-189" value="número de série" style="ellipse;whiteSpace=wrap;html=1;align=center;" vertex="1" parent="1">
          <mxGeometry x="1163" y="845" width="70" height="40" as="geometry" />
        </mxCell>
        <mxCell id="R9z8_o789K9LiWmNqdRv-190" value="" style="endArrow=none;html=1;rounded=0;entryX=0;entryY=0.5;entryDx=0;entryDy=0;" edge="1" parent="1" target="R9z8_o789K9LiWmNqdRv-189">
          <mxGeometry relative="1" as="geometry">
            <mxPoint x="1132.5" y="864.75" as="sourcePoint" />
            <mxPoint x="1292.5" y="864.75" as="targetPoint" />
          </mxGeometry>
        </mxCell>
        <mxCell id="R9z8_o789K9LiWmNqdRv-191" value="" style="triangle;whiteSpace=wrap;html=1;" vertex="1" parent="1">
          <mxGeometry x="1040" y="966" width="10" height="12" as="geometry" />
        </mxCell>
        <mxCell id="R9z8_o789K9LiWmNqdRv-192" value="" style="group" connectable="0" vertex="1" parent="1">
          <mxGeometry x="1041" y="970" width="4" height="4" as="geometry" />
        </mxCell>
        <mxCell id="R9z8_o789K9LiWmNqdRv-193" value="" style="endArrow=none;html=1;rounded=0;" edge="1" parent="R9z8_o789K9LiWmNqdRv-192">
          <mxGeometry relative="1" as="geometry">
            <mxPoint y="4" as="sourcePoint" />
            <mxPoint x="4" as="targetPoint" />
          </mxGeometry>
        </mxCell>
        <mxCell id="R9z8_o789K9LiWmNqdRv-194" value="" style="endArrow=none;html=1;rounded=0;" edge="1" parent="R9z8_o789K9LiWmNqdRv-192">
          <mxGeometry relative="1" as="geometry">
            <mxPoint x="4" y="4" as="sourcePoint" />
            <mxPoint as="targetPoint" />
          </mxGeometry>
        </mxCell>
        <mxCell id="R9z8_o789K9LiWmNqdRv-195" value="" style="endArrow=none;html=1;rounded=0;" edge="1" parent="1">
          <mxGeometry relative="1" as="geometry">
            <mxPoint x="1030" y="971.94" as="sourcePoint" />
            <mxPoint x="1040" y="971.94" as="targetPoint" />
          </mxGeometry>
        </mxCell>
        <mxCell id="R9z8_o789K9LiWmNqdRv-196" value="" style="endArrow=none;html=1;rounded=0;" edge="1" parent="1">
          <mxGeometry relative="1" as="geometry">
            <mxPoint x="1030" y="999" as="sourcePoint" />
            <mxPoint x="1030" y="945" as="targetPoint" />
          </mxGeometry>
        </mxCell>
        <mxCell id="R9z8_o789K9LiWmNqdRv-197" value="" style="endArrow=none;html=1;rounded=0;" edge="1" parent="1">
          <mxGeometry relative="1" as="geometry">
            <mxPoint x="1020" y="999" as="sourcePoint" />
            <mxPoint x="1030" y="999" as="targetPoint" />
          </mxGeometry>
        </mxCell>
        <mxCell id="R9z8_o789K9LiWmNqdRv-198" value="" style="endArrow=none;html=1;rounded=0;" edge="1" parent="1">
          <mxGeometry relative="1" as="geometry">
            <mxPoint x="1020" y="944.99" as="sourcePoint" />
            <mxPoint x="1030" y="944.99" as="targetPoint" />
          </mxGeometry>
        </mxCell>
        <mxCell id="R9z8_o789K9LiWmNqdRv-199" value="Primeira Classe" style="whiteSpace=wrap;html=1;align=center;" vertex="1" parent="1">
          <mxGeometry x="950" y="920" width="70" height="35" as="geometry" />
        </mxCell>
        <mxCell id="R9z8_o789K9LiWmNqdRv-200" value="Segunda classe" style="whiteSpace=wrap;html=1;align=center;" vertex="1" parent="1">
          <mxGeometry x="950" y="987" width="70" height="43" as="geometry" />
        </mxCell>
        <mxCell id="R9z8_o789K9LiWmNqdRv-202" value="voo" style="text;html=1;align=center;verticalAlign=middle;whiteSpace=wrap;rounded=0;" vertex="1" parent="1">
          <mxGeometry x="730" y="974" width="30" height="10" as="geometry" />
        </mxCell>
        <mxCell id="R9z8_o789K9LiWmNqdRv-211" style="edgeStyle=orthogonalEdgeStyle;shape=link;rounded=0;orthogonalLoop=1;jettySize=auto;html=1;exitX=0.658;exitY=0.503;exitDx=0;exitDy=0;entryX=0;entryY=0.43;entryDx=0;entryDy=0;entryPerimeter=0;exitPerimeter=0;" edge="1" parent="1" source="R9z8_o789K9LiWmNqdRv-191" target="R9z8_o789K9LiWmNqdRv-102">
          <mxGeometry relative="1" as="geometry" />
        </mxCell>
        <mxCell id="R9z8_o789K9LiWmNqdRv-215" style="edgeStyle=orthogonalEdgeStyle;shape=link;rounded=0;orthogonalLoop=1;jettySize=auto;html=1;exitX=0.5;exitY=0;exitDx=0;exitDy=0;entryX=0.496;entryY=0.019;entryDx=0;entryDy=0;entryPerimeter=0;" edge="1" parent="1" source="R9z8_o789K9LiWmNqdRv-148" target="R9z8_o789K9LiWmNqdRv-148">
          <mxGeometry relative="1" as="geometry" />
        </mxCell>
        <mxCell id="R9z8_o789K9LiWmNqdRv-222" value="" style="edgeStyle=orthogonalEdgeStyle;shape=link;rounded=0;orthogonalLoop=1;jettySize=auto;html=1;entryX=0;entryY=0.5;entryDx=0;entryDy=0;" edge="1" parent="1">
          <mxGeometry relative="1" as="geometry">
            <mxPoint x="1060" y="700" as="sourcePoint" />
            <mxPoint x="1060" y="700" as="targetPoint" />
          </mxGeometry>
        </mxCell>
        <mxCell id="R9z8_o789K9LiWmNqdRv-231" value="aeroporto_tem &amp;gt;" style="text;html=1;align=center;verticalAlign=middle;resizable=0;points=[];autosize=1;strokeColor=none;fillColor=none;" vertex="1" parent="1">
          <mxGeometry x="808" y="300" width="110" height="30" as="geometry" />
        </mxCell>
        <mxCell id="R9z8_o789K9LiWmNqdRv-234" value="bagagem&lt;div&gt;porão&lt;/div&gt;" style="ellipse;whiteSpace=wrap;html=1;" vertex="1" parent="1">
          <mxGeometry x="1157.94" y="646.25" width="60" height="40" as="geometry" />
        </mxCell>
        <mxCell id="R9z8_o789K9LiWmNqdRv-235" value="" style="endArrow=none;html=1;rounded=0;entryX=0;entryY=0.5;entryDx=0;entryDy=0;exitX=0.5;exitY=0;exitDx=0;exitDy=0;" edge="1" parent="1" source="R9z8_o789K9LiWmNqdRv-234" target="M8U1GDQXhDvbst_Kynyv-7">
          <mxGeometry width="50" height="50" relative="1" as="geometry">
            <mxPoint x="1010" y="1070" as="sourcePoint" />
            <mxPoint x="1060" y="1020" as="targetPoint" />
          </mxGeometry>
        </mxCell>
        <mxCell id="R9z8_o789K9LiWmNqdRv-252" value="" style="rhombus;whiteSpace=wrap;html=1;" vertex="1" parent="1">
          <mxGeometry x="1240" y="777" width="52" height="50" as="geometry" />
        </mxCell>
        <mxCell id="AaVYFF4kPZEP7Um77h5w-2" value="duração" style="ellipse;whiteSpace=wrap;html=1;" vertex="1" parent="1">
          <mxGeometry x="815" y="1029.5" width="47" height="34.5" as="geometry" />
        </mxCell>
        <mxCell id="AaVYFF4kPZEP7Um77h5w-3" value="" style="endArrow=none;html=1;rounded=0;exitX=1;exitY=0.5;exitDx=0;exitDy=0;" edge="1" parent="1" source="R9z8_o789K9LiWmNqdRv-148" target="AaVYFF4kPZEP7Um77h5w-2">
          <mxGeometry width="50" height="50" relative="1" as="geometry">
            <mxPoint x="856" y="942" as="sourcePoint" />
            <mxPoint x="906" y="892" as="targetPoint" />
          </mxGeometry>
        </mxCell>
        <mxCell id="AaVYFF4kPZEP7Um77h5w-4" value="tem &amp;gt;" style="text;html=1;align=center;verticalAlign=middle;resizable=0;points=[];autosize=1;strokeColor=none;fillColor=none;" vertex="1" parent="1">
          <mxGeometry x="730" y="474.6" width="50" height="30" as="geometry" />
        </mxCell>
        <mxCell id="AaVYFF4kPZEP7Um77h5w-5" value="" style="endArrow=none;html=1;rounded=0;entryX=1;entryY=0.5;entryDx=0;entryDy=0;exitX=0;exitY=0.5;exitDx=0;exitDy=0;" edge="1" parent="1" source="R9z8_o789K9LiWmNqdRv-97" target="R9z8_o789K9LiWmNqdRv-84">
          <mxGeometry width="50" height="50" relative="1" as="geometry">
            <mxPoint x="586" y="687" as="sourcePoint" />
            <mxPoint x="636" y="637" as="targetPoint" />
            <Array as="points" />
          </mxGeometry>
        </mxCell>
        <mxCell id="_K1BbyRudqznMXT3kikE-2" value="RI-1" style="text;html=1;align=center;verticalAlign=middle;resizable=0;points=[];autosize=1;strokeColor=none;fillColor=none;" vertex="1" parent="1">
          <mxGeometry x="668" y="397" width="50" height="30" as="geometry" />
        </mxCell>
        <mxCell id="_K1BbyRudqznMXT3kikE-3" value="RI-2" style="text;html=1;align=center;verticalAlign=middle;resizable=0;points=[];autosize=1;strokeColor=none;fillColor=none;" vertex="1" parent="1">
          <mxGeometry x="860" y="479.6" width="50" height="30" as="geometry" />
        </mxCell>
        <mxCell id="_K1BbyRudqznMXT3kikE-4" value="RI-3" style="text;html=1;align=center;verticalAlign=middle;resizable=0;points=[];autosize=1;strokeColor=none;fillColor=none;" vertex="1" parent="1">
          <mxGeometry x="1206" y="821" width="50" height="30" as="geometry" />
        </mxCell>
        <mxCell id="_K1BbyRudqznMXT3kikE-5" value="RI-4" style="text;html=1;align=center;verticalAlign=middle;resizable=0;points=[];autosize=1;strokeColor=none;fillColor=none;" vertex="1" parent="1">
          <mxGeometry x="1163" y="765" width="50" height="30" as="geometry" />
        </mxCell>
        <mxCell id="_K1BbyRudqznMXT3kikE-6" value="RI-5" style="text;html=1;align=center;verticalAlign=middle;whiteSpace=wrap;rounded=0;" vertex="1" parent="1">
          <mxGeometry x="1042" y="946" width="32" height="14" as="geometry" />
        </mxCell>
        <mxCell id="_K1BbyRudqznMXT3kikE-7" value="RI-6" style="text;html=1;align=center;verticalAlign=middle;whiteSpace=wrap;rounded=0;" vertex="1" parent="1">
          <mxGeometry x="717" y="1002" width="32" height="10" as="geometry" />
        </mxCell>
        <mxCell id="_K1BbyRudqznMXT3kikE-9" value="RI-8" style="text;html=1;align=center;verticalAlign=middle;resizable=0;points=[];autosize=1;strokeColor=none;fillColor=none;" vertex="1" parent="1">
          <mxGeometry x="470" y="405" width="50" height="30" as="geometry" />
        </mxCell>
        <mxCell id="_K1BbyRudqznMXT3kikE-12" value="&lt;div&gt;RI-7&lt;/div&gt;" style="text;html=1;align=center;verticalAlign=middle;resizable=0;points=[];autosize=1;strokeColor=none;fillColor=none;" vertex="1" parent="1">
          <mxGeometry x="870" y="954" width="50" height="30" as="geometry" />
        </mxCell>
        <mxCell id="HjxeXZ4SLtCs4D9HzXID-3" value="RI-10" style="text;html=1;align=center;verticalAlign=middle;whiteSpace=wrap;rounded=0;" vertex="1" parent="1">
          <mxGeometry x="1079" y="455.5" width="60" height="30" as="geometry" />
        </mxCell>
        <mxCell id="HjxeXZ4SLtCs4D9HzXID-6" value="RI-11" style="text;html=1;align=center;verticalAlign=middle;whiteSpace=wrap;rounded=0;" vertex="1" parent="1">
          <mxGeometry x="1157.94" y="686.25" width="60" height="30" as="geometry" />
        </mxCell>
        <mxCell id="HjxeXZ4SLtCs4D9HzXID-7" value="RI-12" style="text;html=1;align=center;verticalAlign=middle;whiteSpace=wrap;rounded=0;" vertex="1" parent="1">
          <mxGeometry x="1256" y="640" width="60" height="30" as="geometry" />
        </mxCell>
        <mxCell id="snE1fVkEjvvHVXklv2Yo-1" value="tem &amp;gt;" style="text;html=1;align=center;verticalAlign=middle;resizable=0;points=[];autosize=1;strokeColor=none;fillColor=none;" vertex="1" parent="1">
          <mxGeometry x="1276" y="763" width="50" height="30" as="geometry" />
        </mxCell>
        <mxCell id="HjxeXZ4SLtCs4D9HzXID-13" value="RI-10" style="text;html=1;align=center;verticalAlign=middle;whiteSpace=wrap;rounded=0;" vertex="1" parent="1">
          <mxGeometry x="1082" y="1080" width="40" height="16" as="geometry" />
        </mxCell>
        <mxCell id="9N2XybsgDgmymU0dZ7xB-1" value="data/hora partida" style="ellipse;whiteSpace=wrap;html=1;align=center;" vertex="1" parent="1">
          <mxGeometry x="815" y="933" width="60" height="37" as="geometry" />
        </mxCell>
        <mxCell id="9N2XybsgDgmymU0dZ7xB-2" value="data/hora chegada" style="ellipse;whiteSpace=wrap;html=1;align=center;" vertex="1" parent="1">
          <mxGeometry x="837" y="978" width="60" height="40" as="geometry" />
        </mxCell>
        <mxCell id="9N2XybsgDgmymU0dZ7xB-3" value="" style="endArrow=none;html=1;rounded=0;entryX=0;entryY=0.5;entryDx=0;entryDy=0;" edge="1" parent="1" target="9N2XybsgDgmymU0dZ7xB-2">
          <mxGeometry relative="1" as="geometry">
            <mxPoint x="795" y="997.6800000000001" as="sourcePoint" />
            <mxPoint x="955" y="997.6800000000001" as="targetPoint" />
          </mxGeometry>
        </mxCell>
        <mxCell id="9N2XybsgDgmymU0dZ7xB-4" value="" style="endArrow=none;html=1;rounded=0;exitX=1;exitY=0.5;exitDx=0;exitDy=0;entryX=0;entryY=1;entryDx=0;entryDy=0;" edge="1" parent="1" source="R9z8_o789K9LiWmNqdRv-148" target="9N2XybsgDgmymU0dZ7xB-1">
          <mxGeometry relative="1" as="geometry">
            <mxPoint x="780" y="943" as="sourcePoint" />
            <mxPoint x="940" y="943" as="targetPoint" />
          </mxGeometry>
        </mxCell>
        <mxCell id="9N2XybsgDgmymU0dZ7xB-9" value="aeroporto de chegada" style="text;html=1;align=center;verticalAlign=middle;whiteSpace=wrap;rounded=0;" vertex="1" parent="1">
          <mxGeometry x="668" y="559.8" width="70" height="30" as="geometry" />
        </mxCell>
        <mxCell id="9N2XybsgDgmymU0dZ7xB-10" value="aeroporto de partida" style="text;html=1;align=center;verticalAlign=middle;whiteSpace=wrap;rounded=0;" vertex="1" parent="1">
          <mxGeometry x="550" y="559.8" width="60" height="30" as="geometry" />
        </mxCell>
        <mxCell id="M8U1GDQXhDvbst_Kynyv-4" value="Venda" style="rounded=0;whiteSpace=wrap;html=1;" vertex="1" parent="1">
          <mxGeometry x="1221" y="485.5" width="100" height="40" as="geometry" />
        </mxCell>
        <mxCell id="M8U1GDQXhDvbst_Kynyv-6" value="" style="edgeStyle=orthogonalEdgeStyle;shape=link;rounded=0;orthogonalLoop=1;jettySize=auto;html=1;exitX=0;exitY=0.5;exitDx=0;exitDy=0;entryX=0.265;entryY=0.496;entryDx=0;entryDy=0;entryPerimeter=0;" edge="1" parent="1" source="R9z8_o789K9LiWmNqdRv-84" target="R9z8_o789K9LiWmNqdRv-179">
          <mxGeometry relative="1" as="geometry">
            <Array as="points">
              <mxPoint x="470" y="517" />
              <mxPoint x="470" y="355" />
            </Array>
            <mxPoint x="588" y="517" as="sourcePoint" />
            <mxPoint x="760" y="290" as="targetPoint" />
          </mxGeometry>
        </mxCell>
        <mxCell id="R9z8_o789K9LiWmNqdRv-179" value="" style="triangle;whiteSpace=wrap;html=1;rotation=-180;fillColor=#000000;direction=west;" vertex="1" parent="1">
          <mxGeometry x="827" y="350" width="10" height="10" as="geometry" />
        </mxCell>
        <mxCell id="M8U1GDQXhDvbst_Kynyv-7" value="Bilhete" style="shape=ext;margin=3;double=1;whiteSpace=wrap;html=1;align=center;" vertex="1" parent="1">
          <mxGeometry x="1218" y="594.5" width="96" height="47" as="geometry" />
        </mxCell>
        <mxCell id="M8U1GDQXhDvbst_Kynyv-8" value="" style="shape=rhombus;double=1;perimeter=rhombusPerimeter;whiteSpace=wrap;html=1;align=center;" vertex="1" parent="1">
          <mxGeometry x="1256" y="544.5" width="20" height="20" as="geometry" />
        </mxCell>
        <mxCell id="M8U1GDQXhDvbst_Kynyv-9" value="" style="triangle;whiteSpace=wrap;html=1;rotation=-90;fillColor=#000000;" vertex="1" parent="1">
          <mxGeometry x="1261" y="565.5" width="10" height="10" as="geometry" />
        </mxCell>
        <mxCell id="M8U1GDQXhDvbst_Kynyv-10" style="edgeStyle=orthogonalEdgeStyle;rounded=0;orthogonalLoop=1;jettySize=auto;html=1;exitX=0.5;exitY=0;exitDx=0;exitDy=0;shape=link;" edge="1" parent="1">
          <mxGeometry relative="1" as="geometry">
            <mxPoint x="1265.89" y="594.5" as="sourcePoint" />
            <mxPoint x="1265.89" y="574.5" as="targetPoint" />
            <Array as="points">
              <mxPoint x="1265.89" y="584.5" />
              <mxPoint x="1265.89" y="584.5" />
            </Array>
          </mxGeometry>
        </mxCell>
        <mxCell id="M8U1GDQXhDvbst_Kynyv-11" style="edgeStyle=orthogonalEdgeStyle;rounded=0;orthogonalLoop=1;jettySize=auto;html=1;endArrow=none;startFill=0;" edge="1" parent="1">
          <mxGeometry relative="1" as="geometry">
            <mxPoint x="1265.85" y="525.5" as="targetPoint" />
            <mxPoint x="1266" y="544.5" as="sourcePoint" />
          </mxGeometry>
        </mxCell>
        <mxCell id="9N2XybsgDgmymU0dZ7xB-11" value="&lt;span style=&quot;border-bottom: 1px dotted&quot;&gt;nome passageiro&lt;/span&gt;" style="ellipse;whiteSpace=wrap;html=1;align=center;" vertex="1" parent="1">
          <mxGeometry x="1071.5" y="615" width="86.44" height="40" as="geometry" />
        </mxCell>
        <mxCell id="M8U1GDQXhDvbst_Kynyv-12" value="" style="endArrow=none;html=1;rounded=0;entryX=0;entryY=0.5;entryDx=0;entryDy=0;exitX=1;exitY=0.5;exitDx=0;exitDy=0;" edge="1" parent="1" source="9N2XybsgDgmymU0dZ7xB-11" target="M8U1GDQXhDvbst_Kynyv-7">
          <mxGeometry width="50" height="50" relative="1" as="geometry">
            <mxPoint x="1700" y="380" as="sourcePoint" />
            <mxPoint x="1750" y="330" as="targetPoint" />
          </mxGeometry>
        </mxCell>
        <mxCell id="M8U1GDQXhDvbst_Kynyv-13" value="" style="edgeStyle=orthogonalEdgeStyle;rounded=0;orthogonalLoop=1;jettySize=auto;html=1;shape=link;entryX=0.5;entryY=0;entryDx=0;entryDy=0;" edge="1" parent="1" source="R9z8_o789K9LiWmNqdRv-158" target="M8U1GDQXhDvbst_Kynyv-4">
          <mxGeometry relative="1" as="geometry">
            <mxPoint x="1266" y="320" as="sourcePoint" />
            <mxPoint x="1270" y="380" as="targetPoint" />
          </mxGeometry>
        </mxCell>
        <mxCell id="R9z8_o789K9LiWmNqdRv-158" value="" style="triangle;whiteSpace=wrap;html=1;rotation=-90;direction=west;" vertex="1" parent="1">
          <mxGeometry x="1255.5" y="395" width="30" height="40" as="geometry" />
        </mxCell>
        <mxCell id="M8U1GDQXhDvbst_Kynyv-16" value="X" style="text;html=1;align=center;verticalAlign=middle;resizable=0;points=[];autosize=1;strokeColor=none;fillColor=none;" vertex="1" parent="1">
          <mxGeometry x="1255.5" y="395" width="30" height="30" as="geometry" />
        </mxCell>
        <mxCell id="M8U1GDQXhDvbst_Kynyv-18" value="" style="endArrow=none;html=1;rounded=0;exitX=0.5;exitY=0.333;exitDx=0;exitDy=0;exitPerimeter=0;" edge="1" parent="1">
          <mxGeometry width="50" height="50" relative="1" as="geometry">
            <mxPoint x="1270.5" y="400" as="sourcePoint" />
            <mxPoint x="1270.5" y="370" as="targetPoint" />
          </mxGeometry>
        </mxCell>
        <mxCell id="M8U1GDQXhDvbst_Kynyv-20" value="" style="endArrow=none;html=1;rounded=0;entryX=0.528;entryY=1.042;entryDx=0;entryDy=0;entryPerimeter=0;" edge="1" parent="1" target="R9z8_o789K9LiWmNqdRv-169">
          <mxGeometry width="50" height="50" relative="1" as="geometry">
            <mxPoint x="1270.5" y="370" as="sourcePoint" />
            <mxPoint x="1339.5" y="380" as="targetPoint" />
            <Array as="points">
              <mxPoint x="1352.5" y="370" />
            </Array>
          </mxGeometry>
        </mxCell>
        <mxCell id="M8U1GDQXhDvbst_Kynyv-22" value="" style="endArrow=none;html=1;rounded=0;" edge="1" parent="1">
          <mxGeometry width="50" height="50" relative="1" as="geometry">
            <mxPoint x="1269.5" y="370" as="sourcePoint" />
            <mxPoint x="1181.5" y="340" as="targetPoint" />
            <Array as="points">
              <mxPoint x="1181.5" y="370" />
            </Array>
          </mxGeometry>
        </mxCell>
        <mxCell id="M8U1GDQXhDvbst_Kynyv-23" value="" style="endArrow=none;html=1;rounded=0;entryX=0;entryY=0.5;entryDx=0;entryDy=0;exitX=1;exitY=1;exitDx=0;exitDy=0;" edge="1" parent="1" source="R9z8_o789K9LiWmNqdRv-125" target="M8U1GDQXhDvbst_Kynyv-4">
          <mxGeometry width="50" height="50" relative="1" as="geometry">
            <mxPoint x="1190" y="560" as="sourcePoint" />
            <mxPoint x="1240" y="510" as="targetPoint" />
          </mxGeometry>
        </mxCell>
        <mxCell id="M8U1GDQXhDvbst_Kynyv-24" value="" style="endArrow=none;html=1;rounded=0;entryX=0;entryY=0.5;entryDx=0;entryDy=0;exitX=0.5;exitY=1;exitDx=0;exitDy=0;" edge="1" parent="1" source="R9z8_o789K9LiWmNqdRv-126" target="M8U1GDQXhDvbst_Kynyv-4">
          <mxGeometry width="50" height="50" relative="1" as="geometry">
            <mxPoint x="1200" y="520" as="sourcePoint" />
            <mxPoint x="1250" y="470" as="targetPoint" />
          </mxGeometry>
        </mxCell>
        <mxCell id="HjxeXZ4SLtCs4D9HzXID-1" value="" style="triangle;whiteSpace=wrap;html=1;rotation=0;fillColor=#000000;direction=west;" vertex="1" parent="1">
          <mxGeometry x="885" y="350" width="10" height="10" as="geometry" />
        </mxCell>
        <mxCell id="hgtDqWwip3ZPtSxbKI9x-1" style="edgeStyle=orthogonalEdgeStyle;rounded=0;orthogonalLoop=1;jettySize=auto;html=1;exitX=0.5;exitY=0;exitDx=0;exitDy=0;entryX=0.173;entryY=0.073;entryDx=0;entryDy=0;entryPerimeter=0;startArrow=classic;startFill=1;endArrow=none;" edge="1" parent="1" source="R9z8_o789K9LiWmNqdRv-252" target="HjxeXZ4SLtCs4D9HzXID-7">
          <mxGeometry relative="1" as="geometry" />
        </mxCell>
        <mxCell id="hgtDqWwip3ZPtSxbKI9x-2" value="RI-13" style="text;html=1;align=center;verticalAlign=middle;whiteSpace=wrap;rounded=0;" vertex="1" parent="1">
          <mxGeometry x="955" y="474.6" width="60" height="30" as="geometry" />
        </mxCell>
        <mxCell id="yLHA2r92YybONe6Yiwfi-2" style="edgeStyle=orthogonalEdgeStyle;shape=link;rounded=0;orthogonalLoop=1;jettySize=auto;html=1;exitX=0.942;exitY=0.5;exitDx=0;exitDy=0;entryX=0;entryY=0.5;entryDx=0;entryDy=0;exitPerimeter=0;" edge="1" parent="1" target="R9z8_o789K9LiWmNqdRv-121">
          <mxGeometry relative="1" as="geometry">
            <mxPoint x="1321" y="497" as="sourcePoint" />
            <mxPoint x="1405" y="497" as="targetPoint" />
          </mxGeometry>
        </mxCell>
        <mxCell id="yLHA2r92YybONe6Yiwfi-4" value="" style="edgeStyle=orthogonalEdgeStyle;shape=link;rounded=0;orthogonalLoop=1;jettySize=auto;html=1;exitX=0;exitY=0.5;exitDx=0;exitDy=0;entryX=0;entryY=0.5;entryDx=0;entryDy=0;" edge="1" parent="1" source="HjxeXZ4SLtCs4D9HzXID-1" target="R9z8_o789K9LiWmNqdRv-171">
          <mxGeometry relative="1" as="geometry">
            <Array as="points">
              <mxPoint x="1040" y="355" />
              <mxPoint x="1040" y="320" />
            </Array>
            <mxPoint x="1019" y="377" as="sourcePoint" />
            <mxPoint x="1261" y="215" as="targetPoint" />
          </mxGeometry>
        </mxCell>
        <mxCell id="hgtDqWwip3ZPtSxbKI9x-5" value="" style="triangle;whiteSpace=wrap;html=1;rotation=-180;fillColor=#000000;" vertex="1" parent="1">
          <mxGeometry x="769" y="512" width="10" height="10" as="geometry" />
        </mxCell>
        <mxCell id="hgtDqWwip3ZPtSxbKI9x-10" style="edgeStyle=orthogonalEdgeStyle;shape=link;rounded=0;orthogonalLoop=1;jettySize=auto;html=1;exitX=0;exitY=0.5;exitDx=0;exitDy=0;entryX=0.053;entryY=0.449;entryDx=0;entryDy=0;entryPerimeter=0;" edge="1" parent="1" source="R9z8_o789K9LiWmNqdRv-103" target="hgtDqWwip3ZPtSxbKI9x-5">
          <mxGeometry relative="1" as="geometry" />
        </mxCell>
        <mxCell id="yLHA2r92YybONe6Yiwfi-7" value="" style="triangle;whiteSpace=wrap;html=1;rotation=90;fillColor=#000000;" vertex="1" parent="1">
          <mxGeometry x="1384.75" y="607.5" width="12.5" height="12.5" as="geometry" />
        </mxCell>
        <mxCell id="hgtDqWwip3ZPtSxbKI9x-11" style="edgeStyle=orthogonalEdgeStyle;shape=link;rounded=0;orthogonalLoop=1;jettySize=auto;html=1;exitX=1;exitY=0.75;exitDx=0;exitDy=0;entryX=0.16;entryY=0.511;entryDx=0;entryDy=0;entryPerimeter=0;" edge="1" parent="1" source="M8U1GDQXhDvbst_Kynyv-4" target="yLHA2r92YybONe6Yiwfi-7">
          <mxGeometry relative="1" as="geometry" />
        </mxCell>
        <mxCell id="hgtDqWwip3ZPtSxbKI9x-12" value="RI-9" style="text;html=1;align=center;verticalAlign=middle;whiteSpace=wrap;rounded=0;" vertex="1" parent="1">
          <mxGeometry x="849" y="1032" width="60" height="30" as="geometry" />
        </mxCell>
      </root>
    </mxGraphModel>
  </diagram>
</mxfile>
